<?xml version="1.0" standalone="no"?>
<!DOCTYPE svg PUBLIC "-//W3C//DTD SVG 20010904//EN"
 "http://www.w3.org/TR/2001/REC-SVG-20010904/DTD/svg10.dtd">
<svg version="1.0" xmlns="http://www.w3.org/2000/svg"
 width="512.000000pt" height="512.000000pt" viewBox="0 0 512.000000 512.000000"
 preserveAspectRatio="xMidYMid meet">
<metadata>
Created by potrace 1.14, written by Peter Selinger 2001-2017
</metadata>
<g transform="translate(0.000000,512.000000) scale(0.100000,-0.100000)"
fill="#000000" stroke="none">
<path d="M2055 5110 c-11 -4 -29 -18 -40 -30 -18 -20 -20 -37 -21 -213 0 -106
3 -204 8 -218 13 -39 60 -59 109 -46 48 12 57 52 57 252 0 99 -4 192 -9 206
-14 37 -68 62 -104 49z"/>
<path d="M1045 4838 c-68 -39 -62 -73 51 -271 82 -143 101 -171 130 -183 55
-23 114 14 116 73 1 33 -159 321 -203 366 -29 29 -61 34 -94 15z"/>
<path d="M3025 4826 c-34 -31 -205 -333 -205 -362 0 -36 16 -62 51 -79 28 -15
33 -15 66 2 30 15 51 45 126 173 49 85 93 167 97 181 23 77 -76 139 -135 85z"/>
<path d="M1925 4324 c-535 -65 -974 -450 -1103 -969 -28 -111 -32 -142 -37
-285 -7 -221 31 -399 127 -600 44 -92 136 -232 193 -293 19 -21 35 -41 35 -45
0 -4 -26 -17 -57 -29 -161 -63 -328 -222 -401 -383 -49 -108 -65 -182 -68
-310 -4 -149 10 -219 70 -360 5 -13 -5 -15 -67 -13 -91 2 -141 -9 -233 -52
-125 -58 -226 -173 -273 -311 -21 -65 -27 -197 -11 -269 40 -176 216 -355 385
-392 22 -4 942 -8 2045 -8 1931 0 2008 1 2075 19 91 24 175 68 255 132 103 83
181 193 220 308 30 90 31 100 35 211 11 344 -224 634 -566 700 -74 14 -85 17
-82 25 0 3 4 19 7 35 10 61 16 91 22 115 13 51 11 268 -2 360 -74 528 -451
950 -969 1084 -33 8 -78 18 -100 22 -22 3 -41 7 -42 7 0 1 -4 45 -7 97 -3 52
-8 106 -11 120 -3 14 -7 36 -10 50 -3 14 -7 36 -10 50 -11 57 -60 190 -96 263
-82 165 -188 303 -317 413 -288 246 -638 353 -1007 308z"/>
<path d="M315 4108 c-32 -18 -44 -40 -45 -79 0 -45 10 -55 142 -131 192 -112
226 -129 254 -124 54 10 85 66 65 118 -9 24 -44 49 -171 120 -19 11 -66 38
-104 60 -75 44 -111 53 -141 36z"/>
<path d="M3754 4099 c-120 -63 -317 -184 -322 -198 -12 -32 -6 -82 14 -101 43
-44 67 -38 239 60 176 100 205 125 205 174 0 29 -28 75 -48 77 -4 0 -16 2 -28
4 -11 3 -38 -5 -60 -16z"/>
<path d="M110 3119 c-70 -7 -85 -14 -99 -46 -16 -35 -4 -84 25 -106 22 -16 47
-18 223 -18 145 0 205 3 220 13 54 33 50 124 -7 147 -30 13 -276 19 -362 10z"/>
<path d="M470 2205 c-91 -52 -173 -104 -182 -116 -18 -21 -23 -64 -12 -94 7
-18 55 -45 80 -45 26 0 352 189 369 214 34 48 1 121 -60 131 -25 5 -59 -11
-195 -90z"/>
</g>
</svg>
